<svg id="exportSVG" visibility="visible" xmlns="http://www.w3.org/2000/svg" xmlns:xlink="http://www.w3.org/1999/xlink" version="1.1" data-info="draw.ninja" data-name="loading" viewBox="0 0 243 48" width="243" height="48" style="position: fixed; top: 0px; left: 0px;"><defs id="defsExport"><filter id="filter0"><feGaussianBlur stdDeviation="0"></feGaussianBlur></filter><pattern id="patternImage" patternUnits="userSpaceOnUse" x="0" y="0" width="1" height="1" data-x="0" data-y="0" data-width="1" data-height="1" data-multx="1" data-multy="1" patternTransform="matrix(1,0,0,1,0,0)" data-transs="0" data-transf="0" data-source="patternImage" data-draw="1" fill="#000000" fill-opacity="1"></pattern><pattern id="pattern0" patternUnits="userSpaceOnUse" x="0" y="0" width="10" height="10" data-x="0" data-y="0" data-width="10" data-height="10" data-multx="1" data-multy="1" stroke="none" patternTransform="matrix(1,0,0,1,0,0)" data-transs="0" data-transf="0" data-source="Pattern 0" data-draw="1" fill="#000000" fill-opacity="1"><path transform="matrix(1,0,0,1,0,0)" d="M0 0 L5 0 L5 5 L0 5 L0 0 Z"></path></pattern><pattern id="pattern1" patternUnits="userSpaceOnUse" x="0" y="0" width="10" height="10" data-x="0" data-y="0" data-width="10" data-height="10" data-multx="1" data-multy="1" stroke="none" patternTransform="matrix(1,0,0,1,0,0)" data-transs="0" data-transf="0" data-source="Pattern 1" data-draw="1" fill="#000000" fill-opacity="1"><path transform="matrix(1,0,0,1,0,0)" d="M0 5 L5 0 L10 5 L5 10 L0 5 Z"></path></pattern><pattern id="pattern2" patternUnits="userSpaceOnUse" x="0" y="0" width="10" height="10" data-x="0" data-y="0" data-width="10" data-height="10" data-multx="1" data-multy="1" stroke="none" patternTransform="matrix(1,0,0,1,0,0)" data-transs="0" data-transf="0" data-source="Pattern 2" data-draw="1" fill="#000000" fill-opacity="1"><path transform="matrix(1,0,0,1,0,0)" d="M0 9 L5 1 L10 9 L0 9 Z"></path></pattern><pattern id="pattern3" patternUnits="userSpaceOnUse" x="0" y="0" width="10" height="10" data-x="0" data-y="0" data-width="10" data-height="10" data-multx="1" data-multy="1" stroke="none" patternTransform="matrix(1,0,0,1,0,0)" data-transs="0" data-transf="0" data-source="Pattern 3" data-draw="1" fill="#000000" fill-opacity="1"><path transform="matrix(1,0,0,1,0,0)" d="M0 5 C0 2.25 2.25 0 5 0 C7.75 0 10 2.25 10 5 C10 7.75 7.75 10 5 10 C2.25 10 0 7.75 0 5 Z"></path></pattern><pattern id="pattern4" patternUnits="userSpaceOnUse" x="0" y="0" width="10" height="10" data-x="0" data-y="0" data-width="10" data-height="10" data-multx="1" data-multy="1" stroke="none" patternTransform="matrix(1,0,0,1,0,0)" data-transs="0" data-transf="0" data-source="Pattern 4" data-draw="1" fill="#000000" fill-opacity="1"><path transform="matrix(1,0,0,1,0,0)" d="M0 5 L4 4 L5 0 L6 4 L10 5 L6 6 L5 10 L4 6 L0 5 Z"></path></pattern><pattern id="pattern5" patternUnits="userSpaceOnUse" x="0" y="0" width="10" height="10" data-x="0" data-y="0" data-width="10" data-height="10" data-multx="1" data-multy="1" stroke="none" patternTransform="matrix(1,0,0,1,0,0)" data-transs="0" data-transf="0" data-source="Pattern 5" data-draw="1" fill="#000000" fill-opacity="1"><path transform="matrix(1,0,0,1,0,0)" d="M5 10 C-5 2.75 3 -1.75 5 1 C7 -1.75 15 2.75 5 10 Z"></path></pattern><pattern id="pattern6" patternUnits="userSpaceOnUse" x="0" y="0" width="10" height="10" data-x="0" data-y="0" data-width="10" data-height="10" data-multx="1" data-multy="1" stroke="none" patternTransform="matrix(1,0,0,1,0,0)" data-transs="0" data-transf="0" data-source="Pattern 6" data-draw="1" fill="#000000" fill-opacity="1"><path transform="matrix(1,0,0,1,0,0)" d="M3 0 L7 0 L7 10 L3 10 L3 0 Z"></path></pattern><pattern id="pattern7" patternUnits="userSpaceOnUse" x="0" y="0" width="10" height="10" data-x="0" data-y="0" data-width="10" data-height="10" data-multx="1" data-multy="1" stroke="none" patternTransform="matrix(1,0,0,1,0,0)" data-transs="0" data-transf="0" data-source="Pattern 7" data-draw="1" fill="#000000" fill-opacity="1"><path transform="matrix(1,0,0,1,0,0)" d="M10 3 L10 7 L0 7 L0 3 L10 3 Z"></path></pattern><pattern id="pattern8" patternUnits="userSpaceOnUse" x="0" y="0" width="10" height="10" data-x="0" data-y="0" data-width="10" data-height="10" data-multx="1" data-multy="1" stroke="none" patternTransform="matrix(1,0,0,1,0,0)" data-transs="0" data-transf="0" data-source="Pattern 8" data-draw="1" fill="#000000" fill-opacity="1"><path transform="matrix(1,0,0,1,0,0)" d="M0 10 L3 3 L10 0 L7 7 L0 10 Z"></path></pattern><pattern id="pattern9" patternUnits="userSpaceOnUse" x="0" y="0" width="10" height="10" data-x="0" data-y="0" data-width="10" data-height="10" data-multx="1" data-multy="1" stroke="none" patternTransform="matrix(1,0,0,1,0,0)" data-transs="0" data-transf="0" data-source="Pattern 9" data-draw="1" fill="#000000" fill-opacity="1"><path transform="matrix(1,0,0,1,0,0)" d="M0 4 L10 4 L10 6 L0 6 L0 4 Z M4 10 L4 0 L6 0 L6 10 L4 10 Z"></path></pattern><linearGradient id="linearSystem" gradientUnits="objectBoundingBox" x1="0%" y1="50%" x2="100%" y2="50%" spreadMethod="pad"><stop offset="50%" stop-color="#D0D0D0" stop-opacity="1"></stop><stop offset="100%" stop-color="transparent" stop-opacity="1"></stop></linearGradient><linearGradient id="linearSystem1" gradientUnits="objectBoundingBox" x1="0%" y1="50%" x2="100%" y2="50%" spreadMethod="pad"><stop offset="30%" stop-color="#D0D0D0" stop-opacity="1"></stop><stop offset="100%" stop-color="transparent" stop-opacity="1"></stop></linearGradient><linearGradient id="linearSystem2" gradientUnits="objectBoundingBox" x1="0%" y1="50%" x2="50%" y2="50%" spreadMethod="repeat"><stop offset="30%" stop-color="#D0D0D0" stop-opacity="1"></stop><stop offset="100%" stop-color="transparent" stop-opacity="1"></stop></linearGradient><linearGradient id="linearSystem3" gradientUnits="objectBoundingBox" x1="0%" y1="50%" x2="50%" y2="50%" spreadMethod="reflect"><stop offset="30%" stop-color="#D0D0D0" stop-opacity="1"></stop><stop offset="100%" stop-color="transparent" stop-opacity="1"></stop></linearGradient><radialGradient id="radialSystem" gradientUnits="objectBoundingBox" r="0.5" cx="0.5" fx="0.5" cy="0.5" fy="0.5" spreadMethod="pad"><stop offset="50%" stop-color="#D0D0D0" stop-opacity="1"></stop><stop offset="100%" stop-color="transparent" stop-opacity="1"></stop></radialGradient><pattern id="patternSystem" patternUnits="userSpaceOnUse" x="0" y="0" width="6" height="8"><path stroke="#D0D0D0" stroke-width="5" fill="none" d="M0 0 L0 10"></path></pattern><linearGradient id="linear0" gradientUnits="objectBoundingBox" x1="0%" y1="50%" x2="100%" y2="50%" spreadMethod="pad"><stop offset="0%" stop-color="#FF8000" stop-opacity="1"></stop><stop offset="100%" stop-color="#FFFF00" stop-opacity="1"></stop></linearGradient><linearGradient id="linear1" gradientUnits="objectBoundingBox" x1="0%" y1="50%" x2="100%" y2="50%" spreadMethod="pad"><stop offset="0%" stop-color="#FFFF00" stop-opacity="1"></stop><stop offset="100%" stop-color="#FF8000" stop-opacity="1"></stop></linearGradient><linearGradient id="linearImport" gradientUnits="objectBoundingBox" x1="0%" y1="50%" x2="100%" y2="50%" spreadMethod="pad"><stop offset="0%" stop-color="#FFFFFF" stop-opacity="0.1"></stop><stop offset="100%" stop-color="#000000" stop-opacity="0.1"></stop></linearGradient><radialGradient id="radial0" gradientUnits="objectBoundingBox" r="0.5" cx="0.5" fx="0.5" cy="0.5" fy="0.5" spreadMethod="pad"><stop offset="0%" stop-color="#FF8000" stop-opacity="1"></stop><stop offset="100%" stop-color="#FFFF00" stop-opacity="1"></stop></radialGradient><radialGradient id="radial1" gradientUnits="objectBoundingBox" r="0.5" cx="0.5" fx="0.5" cy="0.5" fy="0.5" spreadMethod="pad"><stop offset="0%" stop-color="#FFFF00" stop-opacity="1"></stop><stop offset="100%" stop-color="#FF8000" stop-opacity="1"></stop></radialGradient><radialGradient id="radialImport" gradientUnits="objectBoundingBox" r="0.5" cx="0.5" fx="0.5" cy="0.5" fy="0.5" spreadMethod="pad"><stop offset="0%" stop-color="#FFFFFF" stop-opacity="0.1"></stop><stop offset="100%" stop-color="#000000" stop-opacity="0.1"></stop></radialGradient></defs><rect id="pageExport" x="0" y="0" width="243" height="48" fill="none" fill-opacity="0" stroke="none" stroke-width="0"></rect><g id="objectsExport" visibility="visible"><path id="path0" d="M0.357 41.38 C5.077 43.25 11.527 44 19.857 43.62 C22.917 43.48 25.107 43.25 26.527 43.03 C28.997 42.66 29.077 42.06 26.747 41.23 C26.227 40.78 24.117 40.7 20.447 41 C16.777 41.31 14.367 41.38 13.167 41.31 C11.977 41.23 11.147 41.08 10.777 40.86 C10.397 40.64 10.107 40.27 10.027 39.73 C9.647 36.14 10.107 9.14 10.917 3.73 C10.917 3.73 8.147 2.45 8.147 2.45 C7.777 2.39 7.477 2.39 7.167 2.61 C6.867 2.98 6.197 2.91 5.077 2.31 C3.947 1.7 2.447 1.27 0.497 1.03 C-0.103 18.52 -0.173 31.94 0.357 41.38 Z M29.997 29.52 C32.167 33.75 36.147 38.19 39.667 39.98 C43.197 41.78 49.647 42.31 54.977 41.33 C60.287 40.36 62.917 37.67 65.107 32.56 C67.277 27.44 67.197 27.3 67.197 20.98 C67.197 17.8 66.897 15.44 66.227 13.72 C64.867 10.39 58.787 4 52.197 2.42 C45.607 0.86 41.327 3.41 35.107 9.34 C28.867 15.28 28.497 16.77 28.497 22.17 C28.497 24.92 29.027 27.38 29.997 29.52 Z M59.247 17.5 C60.287 22.41 59.777 27.52 57.607 32.92 C55.357 38.56 54.747 39 46.867 39 C46.867 39 45.897 39 45.897 39 C43.197 39 41.537 38.94 40.867 38.56 C40.417 38.19 40.037 37.3 39.747 35.97 C39.447 34.64 39.287 33.89 39.227 33.75 C37.497 26.62 38.397 17.2 41.477 10.98 C42.977 7.42 44.027 6.83 47.997 5.64 C51.977 4.45 52.357 4.91 54.147 6.91 C55.947 8.91 58.647 14.61 59.247 17.5 Z M77.107 8.08 C74.697 12.14 72.527 18.44 69.827 26.45 C69.607 27.14 69.227 28.19 68.857 29.53 C68.477 30.88 68.167 31.78 67.947 32.31 C67.727 32.83 67.497 33.58 67.197 34.56 C66.897 35.53 66.667 36.28 66.527 36.66 C66.527 36.66 63.607 43.41 63.607 43.41 C63.607 43.41 65.027 44.31 65.027 44.31 C65.777 44.69 66.287 45.12 66.607 45.5 C67.197 46.33 69.447 47.16 70.117 46.56 C70.497 46.25 70.867 45.12 71.397 43.25 C71.917 41.38 72.747 38.69 73.947 35.31 C76.357 28.48 75.227 29.69 79.647 30.66 C81.527 31.25 85.277 31.33 90.977 30.88 C92.107 35.61 94.577 43.62 95.537 45.06 C96.077 45.73 97.037 46.41 98.477 47 C98.697 47 98.777 46.94 98.857 46.86 C98.997 46.48 97.497 40.94 94.357 30.36 C93.607 27.81 92.857 25.64 91.867 23.83 C86.997 14.91 84.287 9.95 84.287 8.77 C84.367 8.23 84.077 7.78 83.397 7.33 C82.727 6.89 82.417 6.58 82.497 6.36 C82.727 5.98 80.777 4.27 79.947 4.27 C79.577 4.27 78.607 5.53 77.107 8.08 Z M88.787 27.95 C84.897 28.64 82.417 29 81.287 29 C80.167 29 78.667 28.7 76.647 28.11 C76.577 27.95 76.867 27.06 77.537 25.41 C78.227 23.77 79.117 21.44 80.247 18.36 C81.367 15.28 82.117 13.48 82.497 12.81 C83.327 13.78 88.787 24.44 89.327 26.02 C89.537 26.83 89.697 27.28 89.697 27.52 C89.697 27.73 89.397 27.89 88.787 27.95 Z M106.417 44.12 C107.327 44.58 107.857 44.66 108.077 44.36 C108.287 44.06 109.947 43.61 113.027 43 C119.247 41.81 126.977 36.44 131.617 29 C133.787 25.52 133.647 25.52 133.417 21.36 C133.197 17.19 133.117 16.67 131.477 14.3 C130.647 13.11 129.227 11.69 127.197 9.98 C123.147 6.56 119.027 4.53 117.227 4.31 C116.327 4.23 113.617 4.08 109.117 4 C104.617 3.94 102.227 3.78 101.997 3.64 C101.917 3.56 101.857 3.86 101.697 4.38 C101.537 4.91 101.397 5.73 101.247 6.7 C101.107 7.67 100.867 9.61 100.647 12.36 C100.197 17.94 99.527 37.62 99.977 40.61 C100.197 42.11 100.727 43.08 101.537 43.61 C102.367 44.12 102.897 44.36 103.117 44.36 C103.357 44.36 103.577 44.2 103.867 43.91 C104.167 43.61 104.477 43.45 104.697 43.45 C104.917 43.45 105.527 43.69 106.417 44.12 Z M111.367 40 C110.997 40 110.777 39.27 110.777 37.78 C110.777 34.81 110.917 16.08 111.527 11.98 C111.827 9.98 111.977 8.72 111.977 8.2 C111.977 7.67 111.827 7.38 111.527 7.16 C111.227 6.94 111.077 6.78 111.077 6.7 C111.147 6.62 112.647 6.62 115.577 6.7 C121.357 6.86 122.397 7.91 125.617 10.8 C128.857 13.7 129.527 15.19 129.527 19.27 C129.527 21.28 129.447 22.69 129.227 23.5 C128.777 25.06 127.197 28.78 123.227 32.58 C119.247 36.36 113.167 40 111.367 40 Z M158.497 41.34 C157.447 42.61 152.947 41.72 152.727 41.5 C152.497 41.12 153.617 16.58 154.227 12.78 C154.527 10.92 154.667 7.94 154.607 3.92 C154.607 3.92 157.827 3.92 157.827 3.92 C158.417 3.84 158.867 3.78 158.787 2.95 C158.727 2.12 155.787 -0.58 155.577 0.25 C155.357 1.08 144.247 1.3 140.947 0.7 C139.667 0.33 138.917 0.33 138.617 0.62 C137.647 1.53 141.107 4.52 141.397 3.62 C141.477 3.25 141.857 3.17 142.667 3.33 C144.247 3.62 144.247 3.62 143.867 5.78 C143.277 7.94 142.977 28.25 143.417 34.8 C143.647 38.08 144.027 40.02 144.697 40.67 C144.997 40.97 145.147 41.2 145.147 41.34 C145.077 41.5 143.647 41.72 140.727 41.94 C137.787 42.17 136.367 42.55 136.367 42.84 C136.367 43.14 136.897 43.59 137.947 44.19 C140.037 45.39 140.417 45.39 143.947 45.09 C145.667 44.94 146.947 45.02 147.777 45.39 C148.607 45.84 149.117 45.84 149.357 45.39 C149.577 45.02 151.607 44.8 155.357 44.72 C159.107 44.64 161.277 44.48 161.867 44.42 C162.477 44.34 162.857 43.97 162.917 43.3 C163.147 41.88 159.997 40.45 159.617 40.45 C159.397 40.45 159.027 40.75 158.497 41.34 Z M167.417 26.11 C167.417 32.48 167.787 42 168.397 45.98 C172.147 47.11 175.227 47.86 177.697 48.38 C177.917 48.23 177.997 46.28 177.857 42.61 C177.697 38.94 177.397 34.12 177.027 28.36 C176.647 22.58 176.497 18.45 176.727 15.83 C176.727 15.83 178.977 20.19 178.977 20.19 C180.247 22.66 183.027 27.08 186.247 31.66 C187.897 33.98 188.867 35.48 189.397 36.31 C190.287 37.73 195.027 39.98 195.917 39.16 C196.287 38.78 196.607 34.58 196.827 26.62 C197.277 10.73 197.497 9.98 199.667 2.48 C200.037 1.58 196.527 0 195.857 0 C195.477 0 195.247 0.23 195.027 0.75 C194.787 1.28 194.417 2.62 193.827 4.95 C192.617 9.53 192.327 15 192.027 24.69 C191.867 29.56 191.867 32.48 191.787 33.53 C191.787 33.53 188.497 29.11 188.497 29.11 C183.857 22.81 176.577 7.88 176.497 4.58 C176.727 3.69 176.197 2.94 174.777 2.56 C174.107 2.48 173.497 2.33 173.037 2.25 C173.037 2.25 171.477 2.03 171.477 2.03 C170.357 2.11 168.997 1.88 167.417 1.5 C167.417 1.5 167.417 26.11 167.417 26.11 Z M230.037 12.42 C232.667 14.62 234.697 15.64 236.277 15.5 C236.947 15.42 237.327 15.2 237.477 14.98 C237.617 14.77 237.697 13.95 237.777 12.56 C237.917 9.86 236.357 7.67 233.277 6.11 C230.197 4.31 229.667 4.45 224.647 4.45 C219.617 4.45 217.977 4.98 215.787 5.95 C214.667 6.48 213.617 6.78 212.577 7 C209.197 7.89 206.197 10.81 203.577 15.8 C200.787 21.06 200.497 23.98 201.997 29.47 C204.777 39.72 210.617 44.16 223.447 44.16 C227.577 44.16 231.027 43.25 233.577 41.23 C234.247 40.7 234.777 40.33 235.077 40.17 C235.607 39.95 235.897 40.11 235.897 40.78 C235.897 41.61 239.037 43.19 239.727 42.66 C239.947 42.28 239.947 40.25 239.787 36.64 C239.647 33.02 239.727 31.05 240.027 30.83 C240.247 30.59 240.327 30.22 240.247 29.7 C240.027 28.72 239.947 28.56 239.357 27.58 C239.037 27.06 238.897 26.77 238.827 26.69 C238.827 26.69 240.997 27.06 240.997 27.06 C242.417 27.28 243.107 27.28 243.107 26.91 C243.107 26.53 242.417 26.16 241.147 25.64 C238.527 24.66 225.327 23.47 224.357 24.28 C224.357 24.28 224.197 24.44 224.197 24.44 C223.977 24.81 224.417 25.19 225.617 25.56 C228.327 26.39 231.537 26.91 235.367 27.06 C235.367 27.06 235.367 28.56 235.367 28.56 C235.447 30.67 232.747 35.58 230.357 37.92 C227.947 40.25 225.697 41 220.287 41 C220.287 41 215.647 41 215.647 41 C215.647 41 214.827 36.41 214.827 36.41 C213.617 29.84 213.777 24.28 215.357 19.81 C217.667 13.17 220.747 9 223.667 9 C225.107 9 226.607 8.03 224.787 7.36 C224.787 7.16 225.247 7.08 226.147 7 C227.947 7 228.107 7.08 228.107 9.2 C228.107 10.3 228.777 11.33 230.037 12.42 Z " data-centerx="121.55" data-centery="24.19" stroke="#FFFFFF" stroke-width="1" data-sw="1" stroke-opacity="1" stroke-linecap="round" stroke-linejoin="round" fill="#FFFFFF" fill-opacity="1" fill-rule="evenodd" filter="none" visibility="visible" stroke-dasharray="none" marker-start="none" marker-end="none" data-name="curve" data-title="curve" deg="0" data-grad="0" data-group="0" data-edit="1"></path></g><g id="settings" visibility="hidden" data-dn0="primalDraw" data-dn1="#FAFAFA" data-dn2="#D2D2D2" data-dn3="18" data-dn4="#000000" data-dn5="#000000" data-dn6="1" data-dn7="1" data-dn8="2" data-dn9="round" data-dn10="round" data-dn11="none" data-dn12="none" data-dn13="none" data-dn14="evenodd" data-dn15="10" data-dn16="1" data-dn17="243" data-dn18="48" data-dn19="10" data-dn20="0" data-dn21="1" data-dn22="1" data-dn23="1" data-dn24="path0" data-dn25="2" data-dn26="url(#linear0)" data-dn27="url(#linear1)" data-dn28="url(#radial0)" data-dn29="url(#radial1)" data-dn30="#FF8000" data-dn31="#FFFF00" data-dn32="#000000" data-dn33="1" data-dn34="1" data-dn35="10" data-dn36="" data-dn37="0" data-dn38="63"></g></svg>