<svg id="exportSVG" visibility="visible" xmlns="http://www.w3.org/2000/svg" xmlns:xlink="http://www.w3.org/1999/xlink" version="1.1" data-info="draw.ninja" data-name="logo" viewBox="0 0 500 200" width="500" height="200" style="position: fixed; top: 0px; left: 0px;"><defs id="defsExport"><filter id="filter0"><feGaussianBlur stdDeviation="0"></feGaussianBlur></filter><pattern id="patternImage" patternUnits="userSpaceOnUse" x="0" y="0" width="1" height="1" data-x="0" data-y="0" data-width="1" data-height="1" data-multx="1" data-multy="1" patternTransform="matrix(1,0,0,1,0,0)" data-transs="0" data-transf="0" data-source="patternImage" data-draw="1" fill="#B3B3B3" fill-opacity="1"></pattern><pattern id="pattern0" patternUnits="userSpaceOnUse" x="0" y="0" width="10" height="10" data-x="0" data-y="0" data-width="10" data-height="10" data-multx="1" data-multy="1" stroke="none" patternTransform="matrix(1,0,0,1,0,0)" data-transs="0" data-transf="0" data-source="Pattern 0" data-draw="1" fill="#B3B3B3" fill-opacity="1"><path transform="matrix(1,0,0,1,0,0)" d="M0 0 L5 0 L5 5 L0 5 L0 0 Z"></path></pattern><pattern id="pattern1" patternUnits="userSpaceOnUse" x="0" y="0" width="10" height="10" data-x="0" data-y="0" data-width="10" data-height="10" data-multx="1" data-multy="1" stroke="none" patternTransform="matrix(1,0,0,1,0,0)" data-transs="0" data-transf="0" data-source="Pattern 1" data-draw="1" fill="#B3B3B3" fill-opacity="1"><path transform="matrix(1,0,0,1,0,0)" d="M0 5 L5 0 L10 5 L5 10 L0 5 Z"></path></pattern><pattern id="pattern2" patternUnits="userSpaceOnUse" x="0" y="0" width="10" height="10" data-x="0" data-y="0" data-width="10" data-height="10" data-multx="1" data-multy="1" stroke="none" patternTransform="matrix(1,0,0,1,0,0)" data-transs="0" data-transf="0" data-source="Pattern 2" data-draw="1" fill="#B3B3B3" fill-opacity="1"><path transform="matrix(1,0,0,1,0,0)" d="M0 9 L5 1 L10 9 L0 9 Z"></path></pattern><pattern id="pattern3" patternUnits="userSpaceOnUse" x="0" y="0" width="10" height="10" data-x="0" data-y="0" data-width="10" data-height="10" data-multx="1" data-multy="1" stroke="none" patternTransform="matrix(1,0,0,1,0,0)" data-transs="0" data-transf="0" data-source="Pattern 3" data-draw="1" fill="#B3B3B3" fill-opacity="1"><path transform="matrix(1,0,0,1,0,0)" d="M0 5 C0 2.25 2.25 0 5 0 C7.75 0 10 2.25 10 5 C10 7.75 7.75 10 5 10 C2.25 10 0 7.75 0 5 Z"></path></pattern><pattern id="pattern4" patternUnits="userSpaceOnUse" x="0" y="0" width="10" height="10" data-x="0" data-y="0" data-width="10" data-height="10" data-multx="1" data-multy="1" stroke="none" patternTransform="matrix(1,0,0,1,0,0)" data-transs="0" data-transf="0" data-source="Pattern 4" data-draw="1" fill="#B3B3B3" fill-opacity="1"><path transform="matrix(1,0,0,1,0,0)" d="M0 5 L4 4 L5 0 L6 4 L10 5 L6 6 L5 10 L4 6 L0 5 Z"></path></pattern><pattern id="pattern5" patternUnits="userSpaceOnUse" x="0" y="0" width="10" height="10" data-x="0" data-y="0" data-width="10" data-height="10" data-multx="1" data-multy="1" stroke="none" patternTransform="matrix(1,0,0,1,0,0)" data-transs="0" data-transf="0" data-source="Pattern 5" data-draw="1" fill="#B3B3B3" fill-opacity="1"><path transform="matrix(1,0,0,1,0,0)" d="M5 10 C-5 2.75 3 -1.75 5 1 C7 -1.75 15 2.75 5 10 Z"></path></pattern><pattern id="pattern6" patternUnits="userSpaceOnUse" x="0" y="0" width="10" height="10" data-x="0" data-y="0" data-width="10" data-height="10" data-multx="1" data-multy="1" stroke="none" patternTransform="matrix(1,0,0,1,0,0)" data-transs="0" data-transf="0" data-source="Pattern 6" data-draw="1" fill="#B3B3B3" fill-opacity="1"><path transform="matrix(1,0,0,1,0,0)" d="M3 0 L7 0 L7 10 L3 10 L3 0 Z"></path></pattern><pattern id="pattern7" patternUnits="userSpaceOnUse" x="0" y="0" width="10" height="10" data-x="0" data-y="0" data-width="10" data-height="10" data-multx="1" data-multy="1" stroke="none" patternTransform="matrix(1,0,0,1,0,0)" data-transs="0" data-transf="0" data-source="Pattern 7" data-draw="1" fill="#B3B3B3" fill-opacity="1"><path transform="matrix(1,0,0,1,0,0)" d="M10 3 L10 7 L0 7 L0 3 L10 3 Z"></path></pattern><pattern id="pattern8" patternUnits="userSpaceOnUse" x="0" y="0" width="10" height="10" data-x="0" data-y="0" data-width="10" data-height="10" data-multx="1" data-multy="1" stroke="none" patternTransform="matrix(1,0,0,1,0,0)" data-transs="0" data-transf="0" data-source="Pattern 8" data-draw="1" fill="#B3B3B3" fill-opacity="1"><path transform="matrix(1,0,0,1,0,0)" d="M0 10 L3 3 L10 0 L7 7 L0 10 Z"></path></pattern><pattern id="pattern9" patternUnits="userSpaceOnUse" x="0" y="0" width="10" height="10" data-x="0" data-y="0" data-width="10" data-height="10" data-multx="1" data-multy="1" stroke="none" patternTransform="matrix(1,0,0,1,0,0)" data-transs="0" data-transf="0" data-source="Pattern 9" data-draw="1" fill="#B3B3B3" fill-opacity="1"><path transform="matrix(1,0,0,1,0,0)" d="M0 4 L10 4 L10 6 L0 6 L0 4 Z M4 10 L4 0 L6 0 L6 10 L4 10 Z"></path></pattern><linearGradient id="linearSystem" gradientUnits="objectBoundingBox" x1="0%" y1="50%" x2="100%" y2="50%" spreadMethod="pad"><stop offset="50%" stop-color="#D0D0D0" stop-opacity="1"></stop><stop offset="100%" stop-color="transparent" stop-opacity="1"></stop></linearGradient><linearGradient id="linearSystem1" gradientUnits="objectBoundingBox" x1="0%" y1="50%" x2="100%" y2="50%" spreadMethod="pad"><stop offset="30%" stop-color="#D0D0D0" stop-opacity="1"></stop><stop offset="100%" stop-color="transparent" stop-opacity="1"></stop></linearGradient><linearGradient id="linearSystem2" gradientUnits="objectBoundingBox" x1="0%" y1="50%" x2="50%" y2="50%" spreadMethod="repeat"><stop offset="30%" stop-color="#D0D0D0" stop-opacity="1"></stop><stop offset="100%" stop-color="transparent" stop-opacity="1"></stop></linearGradient><linearGradient id="linearSystem3" gradientUnits="objectBoundingBox" x1="0%" y1="50%" x2="50%" y2="50%" spreadMethod="reflect"><stop offset="30%" stop-color="#D0D0D0" stop-opacity="1"></stop><stop offset="100%" stop-color="transparent" stop-opacity="1"></stop></linearGradient><radialGradient id="radialSystem" gradientUnits="objectBoundingBox" r="0.5" cx="0.5" fx="0.5" cy="0.5" fy="0.5" spreadMethod="pad"><stop offset="50%" stop-color="#D0D0D0" stop-opacity="1"></stop><stop offset="100%" stop-color="transparent" stop-opacity="1"></stop></radialGradient><pattern id="patternSystem" patternUnits="userSpaceOnUse" x="0" y="0" width="6" height="8"><path stroke="#D0D0D0" stroke-width="5" fill="none" d="M0 0 L0 10"></path></pattern><linearGradient id="linear0" gradientUnits="objectBoundingBox" x1="0%" y1="50%" x2="100%" y2="50%" spreadMethod="pad"><stop offset="0%" stop-color="#FF8000" stop-opacity="1"></stop><stop offset="100%" stop-color="#FFFF00" stop-opacity="1"></stop></linearGradient><linearGradient id="linear1" gradientUnits="objectBoundingBox" x1="0%" y1="50%" x2="100%" y2="50%" spreadMethod="pad"><stop offset="0%" stop-color="#FFFF00" stop-opacity="1"></stop><stop offset="100%" stop-color="#FF8000" stop-opacity="1"></stop></linearGradient><linearGradient id="linearImport" gradientUnits="objectBoundingBox" x1="0%" y1="50%" x2="100%" y2="50%" spreadMethod="pad"><stop offset="0%" stop-color="#FFFFFF" stop-opacity="0.1"></stop><stop offset="100%" stop-color="#000000" stop-opacity="0.1"></stop></linearGradient><radialGradient id="radial0" gradientUnits="objectBoundingBox" r="0.5" cx="0.5" fx="0.5" cy="0.5" fy="0.5" spreadMethod="pad"><stop offset="0%" stop-color="#FF8000" stop-opacity="1"></stop><stop offset="100%" stop-color="#FFFF00" stop-opacity="1"></stop></radialGradient><radialGradient id="radial1" gradientUnits="objectBoundingBox" r="0.5" cx="0.5" fx="0.5" cy="0.5" fy="0.5" spreadMethod="pad"><stop offset="0%" stop-color="#FFFF00" stop-opacity="1"></stop><stop offset="100%" stop-color="#FF8000" stop-opacity="1"></stop></radialGradient><radialGradient id="radialImport" gradientUnits="objectBoundingBox" r="0.5" cx="0.5" fx="0.5" cy="0.5" fy="0.5" spreadMethod="pad"><stop offset="0%" stop-color="#FFFFFF" stop-opacity="0.1"></stop><stop offset="100%" stop-color="#000000" stop-opacity="0.1"></stop></radialGradient><radialGradient id="radial2" gradientUnits="objectBoundingBox" r="0.5" cx="0.5" fx="0.5" cy="0.5" fy="0.5" spreadMethod="pad"><stop offset="0%" stop-color="#FFFF00" stop-opacity="1"></stop><stop offset="100%" stop-color="#FF8000" stop-opacity="1"></stop></radialGradient><linearGradient id="linear3" gradientUnits="objectBoundingBox" x1="0%" y1="50%" x2="99.94%" y2="52.38%" spreadMethod="reflect"><stop offset="0%" stop-color="#80FFFF" stop-opacity="1"></stop><stop offset="100%" stop-color="#FF80FF" stop-opacity="1"></stop></linearGradient><pattern id="pattern10" patternUnits="userSpaceOnUse" x="220" y="270" width="10" height="10" data-x="220" data-y="270" data-width="10" data-height="10" data-multx="1" data-multy="1" stroke="none" patternTransform="matrix(1,0,0,1,0,0)" data-transs="0" data-transf="0" data-source="Pattern 0" data-draw="1" fill="#00FFFF" fill-opacity="1"><path transform="matrix(1,0,0,1,0,0)" d="M0 0 L5 0 L5 5 L0 5 L0 0 Z"></path></pattern><radialGradient id="radial4" gradientUnits="objectBoundingBox" r="0.5" cx="0.5" fx="0.5" cy="0.5" fy="0.5" spreadMethod="pad"><stop offset="0%" stop-color="#FFFF00" stop-opacity="1"></stop><stop offset="100%" stop-color="#FF8000" stop-opacity="1"></stop></radialGradient><linearGradient id="linear5" gradientUnits="objectBoundingBox" x1="0%" y1="50%" x2="100%" y2="50%" spreadMethod="pad"><stop offset="0%" stop-color="#FFFF00" stop-opacity="1"></stop><stop offset="100%" stop-color="#FF8000" stop-opacity="1"></stop></linearGradient><linearGradient id="linear6" gradientUnits="objectBoundingBox" x1="25%" y1="51.67%" x2="99.99%" y2="49.28%" spreadMethod="reflect"><stop offset="0%" stop-color="#0080C0" stop-opacity="1"></stop><stop offset="100%" stop-color="#FF80FF" stop-opacity="1"></stop></linearGradient><linearGradient id="linear7" gradientUnits="objectBoundingBox" x1="0%" y1="50%" x2="100%" y2="50%" spreadMethod="pad"><stop offset="0%" stop-color="#FF8000" stop-opacity="1"></stop><stop offset="100%" stop-color="#FFFF00" stop-opacity="1"></stop></linearGradient><radialGradient id="radial8" gradientUnits="objectBoundingBox" r="0.5" cx="0.23333333333333336" fx="0.23333333333333336" cy="0.41666666666666674" fy="0.41666666666666674" spreadMethod="pad"><stop offset="0%" stop-color="#FFFF00" stop-opacity="1"></stop><stop offset="100%" stop-color="#FF8000" stop-opacity="1"></stop></radialGradient><pattern id="pattern11" patternUnits="userSpaceOnUse" x="220" y="270" width="10" height="10" data-x="220" data-y="270" data-width="10" data-height="10" data-multx="1" data-multy="1" stroke="none" patternTransform="matrix(1,0,0,1,0,0)" data-transs="0" data-transf="0" data-source="Pattern 0" data-draw="1" fill="#B3B3B3" fill-opacity="1"><path transform="matrix(1,0,0,1,0,0)" d="M0 0 L5 0 L5 5 L0 5 L0 0 Z"></path></pattern><radialGradient id="radial9" gradientUnits="objectBoundingBox" r="0.5" cx="0.5" fx="0.5" cy="0.5" fy="0.5" spreadMethod="pad"><stop offset="0%" stop-color="#FF8000" stop-opacity="1"></stop><stop offset="100%" stop-color="#FFFF00" stop-opacity="1"></stop></radialGradient><linearGradient id="linear10" gradientUnits="objectBoundingBox" x1="0%" y1="50%" x2="100%" y2="50%" spreadMethod="pad"><stop offset="0%" stop-color="#FF8000" stop-opacity="1"></stop><stop offset="100%" stop-color="#FFFF00" stop-opacity="1"></stop></linearGradient><radialGradient id="radial11" gradientUnits="objectBoundingBox" r="0.5" cx="0.5" fx="0.5" cy="0.5" fy="0.5" spreadMethod="pad"><stop offset="0%" stop-color="#FFFF00" stop-opacity="1"></stop><stop offset="100%" stop-color="#FF8000" stop-opacity="1"></stop></radialGradient><linearGradient id="linear12" gradientUnits="objectBoundingBox" x1="0%" y1="50%" x2="100%" y2="50%" spreadMethod="pad"><stop offset="0%" stop-color="#FFFF00" stop-opacity="1"></stop><stop offset="100%" stop-color="#FF8000" stop-opacity="1"></stop></linearGradient><radialGradient id="radial13" gradientUnits="objectBoundingBox" r="0.56" cx="0.55" fx="0.55" cy="0.5166666666666667" fy="0.5166666666666667" spreadMethod="reflect"><stop offset="0%" stop-color="#80FFFF" stop-opacity="1"></stop><stop offset="100%" stop-color="#FF80FF" stop-opacity="1"></stop></radialGradient><pattern id="pattern12" patternUnits="userSpaceOnUse" x="220" y="270" width="10" height="10" data-x="220" data-y="270" data-width="10" data-height="10" data-multx="1" data-multy="1" stroke="none" patternTransform="matrix(1,0,0,1,0,0)" data-transs="0" data-transf="0" data-source="Pattern 0" data-draw="1" fill="#B3B3B3" fill-opacity="1"><path transform="matrix(1,0,0,1,0,0)" d="M0 0 L5 0 L5 5 L0 5 L0 0 Z"></path></pattern><linearGradient id="linear14" gradientUnits="objectBoundingBox" x1="0%" y1="50%" x2="100%" y2="50%" spreadMethod="pad"><stop offset="0%" stop-color="#FFFF00" stop-opacity="1"></stop><stop offset="100%" stop-color="#FF8000" stop-opacity="1"></stop></linearGradient><linearGradient id="linear15" gradientUnits="objectBoundingBox" x1="0%" y1="50%" x2="100%" y2="49.48%" spreadMethod="reflect"><stop offset="0%" stop-color="#FFFF00" stop-opacity="1"></stop><stop offset="100%" stop-color="#FF8000" stop-opacity="1"></stop></linearGradient><radialGradient id="radial16" gradientUnits="objectBoundingBox" r="0.5" cx="0.5" fx="0.5" cy="0.5" fy="0.5" spreadMethod="pad"><stop offset="0%" stop-color="#FFFF00" stop-opacity="1"></stop><stop offset="100%" stop-color="#FF8000" stop-opacity="1"></stop></radialGradient><pattern id="pattern13" patternUnits="userSpaceOnUse" x="245.33333333333334" y="317.33333333333337" width="10" height="10" data-x="220" data-y="270" data-width="10" data-height="10" data-multx="1.0666666666666667" data-multy="1.1333333333333335" stroke="none" patternTransform="matrix(1,0,0,1,0,0)" data-transs="0" data-transf="0" data-source="Pattern 0" data-draw="1" fill="#FF80FF" fill-opacity="1"><path transform="matrix(1,0,0,1,0,0)" d="M0 0 L5 0 L5 5 L0 5 L0 0 Z"></path></pattern><pattern id="pattern14" patternUnits="userSpaceOnUse" x="220" y="270" width="10" height="10" data-x="220" data-y="270" data-width="10" data-height="10" data-multx="1" data-multy="1" stroke="none" patternTransform="matrix(1,0,0,1,0,0)" data-transs="0" data-transf="0" data-source="Pattern 1" data-draw="1" fill="#B3B3B3" fill-opacity="1"><path transform="matrix(1,0,0,1,0,0)" d="M0 5 L5 0 L10 5 L5 10 L0 5 Z"></path></pattern><pattern id="pattern15" patternUnits="userSpaceOnUse" x="220" y="270" width="10" height="10" data-x="220" data-y="270" data-width="10" data-height="10" data-multx="1" data-multy="1" stroke="none" patternTransform="matrix(1,0,0,1,0,0)" data-transs="0" data-transf="0" data-source="Pattern 2" data-draw="1" fill="#B3B3B3" fill-opacity="1"><path transform="matrix(1,0,0,1,0,0)" d="M0 9 L5 1 L10 9 L0 9 Z"></path></pattern><pattern id="pattern16" patternUnits="userSpaceOnUse" x="220" y="270" width="10" height="10" data-x="220" data-y="270" data-width="10" data-height="10" data-multx="1" data-multy="1" stroke="none" patternTransform="matrix(1,0,0,1,0,0)" data-transs="0" data-transf="0" data-source="Pattern 9" data-draw="1" fill="#B3B3B3" fill-opacity="1"><path transform="matrix(1,0,0,1,0,0)" d="M0 4 L10 4 L10 6 L0 6 L0 4 Z M4 10 L4 0 L6 0 L6 10 L4 10 Z"></path></pattern><pattern id="pattern17" patternUnits="userSpaceOnUse" x="220" y="270" width="10" height="10" data-x="220" data-y="270" data-width="10" data-height="10" data-multx="1" data-multy="1" stroke="none" patternTransform="matrix(1,0,0,1,0,0)" data-transs="0" data-transf="0" data-source="Pattern 8" data-draw="1" fill="#B3B3B3" fill-opacity="1"><path transform="matrix(1,0,0,1,0,0)" d="M0 10 L3 3 L10 0 L7 7 L0 10 Z"></path></pattern><pattern id="pattern18" patternUnits="userSpaceOnUse" x="220" y="270" width="10" height="10" data-x="220" data-y="270" data-width="10" data-height="10" data-multx="1" data-multy="1" stroke="none" patternTransform="matrix(1,0,0,1,0,0)" data-transs="0" data-transf="0" data-source="Pattern 7" data-draw="1" fill="#B3B3B3" fill-opacity="1"><path transform="matrix(1,0,0,1,0,0)" d="M10 3 L10 7 L0 7 L0 3 L10 3 Z"></path></pattern><pattern id="pattern19" patternUnits="userSpaceOnUse" x="220" y="270" width="10" height="10" data-x="220" data-y="270" data-width="10" data-height="10" data-multx="1" data-multy="1" stroke="none" patternTransform="matrix(1,0,0,1,0,0)" data-transs="0" data-transf="0" data-source="Pattern 6" data-draw="1" fill="#B3B3B3" fill-opacity="1"><path transform="matrix(1,0,0,1,0,0)" d="M3 0 L7 0 L7 10 L3 10 L3 0 Z"></path></pattern><pattern id="pattern20" patternUnits="userSpaceOnUse" x="220" y="270" width="10" height="10" data-x="220" data-y="270" data-width="10" data-height="10" data-multx="1" data-multy="1" stroke="none" patternTransform="matrix(1,0,0,1,0,0)" data-transs="0" data-transf="0" data-source="Pattern 6" data-draw="1" fill="#B3B3B3" fill-opacity="1"><path transform="matrix(1,0,0,1,0,0)" d="M3 0 L7 0 L7 10 L3 10 L3 0 Z"></path></pattern><pattern id="pattern21" patternUnits="userSpaceOnUse" x="220" y="270" width="10" height="10" data-x="220" data-y="270" data-width="10" data-height="10" data-multx="1" data-multy="1" stroke="none" patternTransform="matrix(1,0,0,1,0,0)" data-transs="0" data-transf="0" data-source="Pattern 5" data-draw="1" fill="#B3B3B3" fill-opacity="1"><path transform="matrix(1,0,0,1,0,0)" d="M5 10 C-5 2.75 3 -1.75 5 1 C7 -1.75 15 2.75 5 10 Z"></path></pattern><pattern id="pattern22" patternUnits="userSpaceOnUse" x="220" y="270" width="10" height="10" data-x="220" data-y="270" data-width="10" data-height="10" data-multx="1" data-multy="1" stroke="none" patternTransform="matrix(1,0,0,1,0,0)" data-transs="0" data-transf="0" data-source="Pattern 4" data-draw="1" fill="#B3B3B3" fill-opacity="1"><path transform="matrix(1,0,0,1,0,0)" d="M0 5 L4 4 L5 0 L6 4 L10 5 L6 6 L5 10 L4 6 L0 5 Z"></path></pattern><pattern id="pattern23" patternUnits="userSpaceOnUse" x="220" y="270" width="10" height="10" data-x="220" data-y="270" data-width="10" data-height="10" data-multx="1" data-multy="1" stroke="none" patternTransform="matrix(1,0,0,1,0,0)" data-transs="0" data-transf="0" data-source="Pattern 3" data-draw="1" fill="#B3B3B3" fill-opacity="1"><path transform="matrix(1,0,0,1,0,0)" d="M0 5 C0 2.25 2.25 0 5 0 C7.75 0 10 2.25 10 5 C10 7.75 7.75 10 5 10 C2.25 10 0 7.75 0 5 Z"></path></pattern><pattern id="pattern24" patternUnits="userSpaceOnUse" x="220" y="270" width="10" height="10" data-x="220" data-y="270" data-width="10" data-height="10" data-multx="1" data-multy="1" stroke="none" patternTransform="matrix(1,0,0,1,0,0)" data-transs="0" data-transf="0" data-source="Pattern 2" data-draw="1" fill="#B3B3B3" fill-opacity="1"><path transform="matrix(1,0,0,1,0,0)" d="M0 9 L5 1 L10 9 L0 9 Z"></path></pattern><pattern id="pattern25" patternUnits="userSpaceOnUse" x="220" y="270" width="10" height="10" data-x="220" data-y="270" data-width="10" data-height="10" data-multx="1" data-multy="1" stroke="none" patternTransform="matrix(1,0,0,1,0,0)" data-transs="0" data-transf="0" data-source="Pattern 0" data-draw="1" fill="#B3B3B3" fill-opacity="1"><path transform="matrix(1,0,0,1,0,0)" d="M0 0 L5 0 L5 5 L0 5 L0 0 Z"></path></pattern><radialGradient id="radial17" gradientUnits="objectBoundingBox" r="0.5" cx="0.5" fx="0.5" cy="0.5" fy="0.5" spreadMethod="pad"><stop offset="0%" stop-color="#FFFF00" stop-opacity="1"></stop><stop offset="100%" stop-color="#FF8000" stop-opacity="1"></stop></radialGradient><linearGradient id="linear18" gradientUnits="objectBoundingBox" x1="0%" y1="50%" x2="100%" y2="50%" spreadMethod="pad"><stop offset="0%" stop-color="#FFFF00" stop-opacity="1"></stop><stop offset="100%" stop-color="#FF8000" stop-opacity="1"></stop></linearGradient><filter id="filter1"><feGaussianBlur stdDeviation="0"></feGaussianBlur></filter><filter id="filter2"><feGaussianBlur stdDeviation="0"></feGaussianBlur></filter><filter id="filter3"><feGaussianBlur stdDeviation="0"></feGaussianBlur></filter><marker id="path7marker2" viewBox="0 0 10 10" refX="5" refY="5" markerWidth="5" markerHeight="5" orient="auto" fill="#000000" fill-opacity="1"><path id="marker2Path" d="M0 0 L10 5 L0 10 L2 5 L0 0 Z"></path></marker><marker id="path0marker2" viewBox="0 0 10 10" refX="5" refY="5" markerWidth="5" markerHeight="5" orient="auto" fill="#000000" fill-opacity="1"><path id="marker2Path" d="M0 0 L10 5 L0 10 L2 5 L0 0 Z"></path></marker><marker id="path7marker10" viewBox="0 0 10 10" refX="5" refY="5" markerWidth="5" markerHeight="5" orient="auto" fill="#000000" fill-opacity="1"><path id="marker10Path" d="M10 0 L0 5 L10 10 L8 5 L10 0 Z"></path></marker><marker id="path0marker10" viewBox="0 0 10 10" refX="5" refY="5" markerWidth="5" markerHeight="5" orient="auto" fill="#000000" fill-opacity="1"><path id="marker10Path" d="M10 0 L0 5 L10 10 L8 5 L10 0 Z"></path></marker><linearGradient id="linear19" gradientUnits="objectBoundingBox" x1="0%" y1="50%" x2="100%" y2="50%" spreadMethod="pad"><stop offset="0%" stop-color="#FF8000" stop-opacity="1"></stop><stop offset="100%" stop-color="#FFFF00" stop-opacity="1"></stop></linearGradient><linearGradient id="linear20" gradientUnits="objectBoundingBox" x1="0%" y1="50%" x2="100%" y2="50%" spreadMethod="pad"><stop offset="0%" stop-color="#FF8000" stop-opacity="1"></stop><stop offset="100%" stop-color="#FFFF00" stop-opacity="1"></stop></linearGradient><pattern id="pattern26" patternUnits="userSpaceOnUse" x="467.4200134277344" y="270" width="10" height="10" data-x="467.4200134277344" data-y="270" data-width="10" data-height="10" data-multx="1" data-multy="1" stroke="none" patternTransform="matrix(1,0,0,1,0,0)" data-transs="0" data-transf="0" data-source="Pattern 0" data-draw="1" fill="#B3B3B3" fill-opacity="1"><path transform="matrix(1,0,0,1,0,0)" d="M0 0 L5 0 L5 5 L0 5 L0 0 Z"></path></pattern><pattern id="pattern27" patternUnits="userSpaceOnUse" x="226" y="271" width="10" height="10" data-x="226" data-y="271" data-width="10" data-height="10" data-multx="1" data-multy="1" stroke="none" patternTransform="matrix(1,0,0,1,0,0)" data-transs="0" data-transf="0" data-source="Pattern 0" data-draw="1" fill="#B3B3B3" fill-opacity="1"><path transform="matrix(1,0,0,1,0,0)" d="M0 0 L5 0 L5 5 L0 5 L0 0 Z"></path></pattern><radialGradient id="radial21" gradientUnits="objectBoundingBox" r="0.5" cx="0.5" fx="0.5" cy="0.5" fy="0.5" spreadMethod="pad"><stop offset="0%" stop-color="#FF8000" stop-opacity="1"></stop><stop offset="100%" stop-color="#FFFF00" stop-opacity="1"></stop></radialGradient><radialGradient id="radial22" gradientUnits="objectBoundingBox" r="0.5" cx="0.5" fx="0.5" cy="0.5" fy="0.5" spreadMethod="pad"><stop offset="0%" stop-color="#FF8000" stop-opacity="1"></stop><stop offset="100%" stop-color="#FFFF00" stop-opacity="1"></stop></radialGradient><pattern id="pattern28" patternUnits="userSpaceOnUse" x="467.4200134277344" y="270" width="10" height="10" data-x="467.4200134277344" data-y="270" data-width="10" data-height="10" data-multx="1" data-multy="1" stroke="none" patternTransform="matrix(1,0,0,1,0,0)" data-transs="0" data-transf="0" data-source="Pattern 0" data-draw="1" fill="#B3B3B3" fill-opacity="1"><path transform="matrix(1,0,0,1,0,0)" d="M0 0 L5 0 L5 5 L0 5 L0 0 Z"></path></pattern><pattern id="pattern29" patternUnits="userSpaceOnUse" x="226" y="271" width="10" height="10" data-x="226" data-y="271" data-width="10" data-height="10" data-multx="1" data-multy="1" stroke="none" patternTransform="matrix(1,0,0,1,0,0)" data-transs="0" data-transf="0" data-source="Pattern 0" data-draw="1" fill="#B3B3B3" fill-opacity="1"><path transform="matrix(1,0,0,1,0,0)" d="M0 0 L5 0 L5 5 L0 5 L0 0 Z"></path></pattern><pattern id="patternPreview" patternUnits="userSpaceOnUse" x="467.4200134277344" y="270" width="10" height="10" data-x="467.4200134277344" data-y="270" data-width="10" data-height="10" data-multx="1" data-multy="1" stroke="none" patternTransform="matrix(1,0,0,1,0,0)" data-transs="0" data-transf="0" data-source="Pattern 0" data-draw="1" fill="#B3B3B3" fill-opacity="1"><path transform="matrix(1,0,0,1,0,0)" d="M0 0 L5 0 L5 5 L0 5 L0 0 Z"></path></pattern><linearGradient id="linear23" gradientUnits="objectBoundingBox" x1="0%" y1="50%" x2="100%" y2="50%" spreadMethod="pad"><stop offset="0%" stop-color="#FF8000" stop-opacity="1"></stop><stop offset="100%" stop-color="#FFFF00" stop-opacity="1"></stop></linearGradient><linearGradient id="linear24" gradientUnits="objectBoundingBox" x1="0%" y1="50%" x2="100%" y2="50%" spreadMethod="pad"><stop offset="0%" stop-color="#FF8000" stop-opacity="1"></stop><stop offset="100%" stop-color="#FFFF00" stop-opacity="1"></stop></linearGradient><marker id="path7marker11" viewBox="0 0 10 10" refX="5" refY="5" markerWidth="5" markerHeight="5" orient="auto" fill="#000000" fill-opacity="1"><path id="marker11Path" d="M10 0 L0 5 L10 10 L10 0 Z"></path></marker><marker id="path0marker11" viewBox="0 0 10 10" refX="5" refY="5" markerWidth="5" markerHeight="5" orient="auto" fill="#000000" fill-opacity="1"><path id="marker11Path" d="M10 0 L0 5 L10 10 L10 0 Z"></path></marker></defs><rect id="pageExport" x="0" y="0" width="500" height="200" fill="none" fill-opacity="0" stroke="none" stroke-width="0"></rect><g id="objectsExport" visibility="visible"><path id="path0" d="M121.48 99.037 L136.42 137.553 C138.36 142.529 140.88 145.006 144 145.006 C144 145.006 176.42 145.006 176.42 145.006 C182.94 145.006 186.2 147.462 186.2 152.373 C186.2 155.973 185.06 158.759 182.79 160.751 C180.53 162.733 177.3 163.724 173.09 163.724 C173.09 163.724 140.46 163.724 140.46 163.724 C131.5 163.724 125.27 159.078 121.78 149.785 C121.78 149.785 101.31 95.942 101.31 95.942 C101.31 95.942 97.82 107.383 97.82 107.383 C93.29 119.583 90.07 127.841 88.15 132.135 C86.25 136.44 84.04 140.415 81.54 144.082 C72.52 157.361 61.17 164 47.48 164 C37.52 164 29.45 160.586 23.26 153.76 C17.08 146.934 14 137.992 14 126.926 C14 112.503 18.86 99.818 28.57 88.852 C33.81 83.016 40.37 78.303 48.26 74.714 C56.14 71.113 63.96 69.308 71.7 69.308 C75.37 69.308 78.36 70.233 80.65 72.093 C82.94 73.943 84.09 76.354 84.09 79.317 C84.09 82.554 82.86 85.141 80.4 87.057 C78.98 88.158 76.25 88.951 72.2 89.425 C62.75 90.36 55.17 92.738 49.46 96.537 C44.65 99.764 40.85 103.936 38.06 109.046 C35.28 114.166 33.89 119.506 33.89 125.088 C33.89 130.979 35.24 135.637 37.95 139.049 C40.67 142.474 44.36 144.181 49.04 144.181 C54.79 144.181 59.78 141.483 64 136.109 C68.22 130.748 72.86 121.19 77.92 107.47 C77.92 107.47 96.42 54.718 96.42 54.718 C96.42 54.718 89.12 54.718 89.12 54.718 C82.61 54.718 79.36 52.241 79.36 47.286 C79.36 43.675 80.48 40.9 82.75 38.94 C85.02 36.98 88.23 36 92.39 36 C92.39 36 115.89 36 115.89 36 C122.02 36 126.52 36.396 129.37 37.189 C132.23 37.971 134.98 39.589 137.62 42.056 C143.1 47.143 145.84 54.289 145.84 63.505 C145.84 71.895 143.6 79.35 139.14 85.879 C134.68 92.408 128.79 96.791 121.48 99.037 M105.56 84.425 L107.6 84.271 C112.99 83.908 117 82.741 119.65 80.78 C124.75 77.037 127.29 71.994 127.29 65.663 C127.29 58.363 124.18 54.718 117.95 54.718 C117.95 54.718 116.39 54.718 116.39 54.718 C116.39 54.718 105.56 84.425 105.56 84.425 M151.82 118.082 C151.82 122.486 154.48 124.689 159.82 124.689 C159.82 124.689 180.85 124.689 180.85 124.689 C186.8 124.689 189.77 126.935 189.77 131.427 C189.77 134.521 188.72 136.921 186.62 138.638 C184.52 140.356 181.59 141.205 177.8 141.205 C177.8 141.205 157.77 141.205 157.77 141.205 C150.31 141.205 144.64 139.19 140.74 135.148 C136.84 131.097 134.9 125.184 134.9 117.41 C134.9 107.413 137.98 98.791 144.13 91.534 C150.3 84.279 157.63 80.645 166.13 80.645 C172.31 80.645 177.27 82.407 181.02 85.93 C184.78 89.432 186.66 94.078 186.66 99.826 C186.66 106.752 184.07 111.894 178.88 115.23 C176 117.134 171.7 118.082 165.99 118.082 C165.99 118.082 151.82 118.082 151.82 118.082 M155.23 103.768 L163.01 103.768 C168.06 103.768 170.52 102.557 170.38 100.134 C170.23 97.414 168.61 96.06 165.49 96.06 C161.15 96.06 157.73 98.636 155.23 103.768 M212.52 124.689 L220.52 124.689 C226.47 124.689 229.45 126.935 229.45 131.427 C229.45 134.521 228.39 136.921 226.29 138.638 C224.2 140.356 221.26 141.205 217.48 141.205 C217.48 141.205 206.21 141.205 206.21 141.205 C202.06 141.205 198.78 140.28 196.4 138.419 C194.02 136.547 192.84 134.004 192.84 130.799 C192.84 129.092 193.33 126.912 194.32 124.259 C194.32 124.259 206.01 92.702 206.01 92.702 C206.01 92.702 206.79 90.522 206.79 90.522 C208.95 84.675 212.45 81.747 217.26 81.747 C219.25 81.747 220.96 82.484 222.4 83.948 C223.84 85.423 224.56 87.164 224.56 89.201 C224.56 90.885 223.92 93.45 222.65 96.908 C222.65 96.908 212.52 124.689 212.52 124.689 M221.87 56.421 C224.61 56.421 226.93 57.501 228.84 59.637 C230.75 61.772 231.71 64.372 231.71 67.432 C231.71 70.493 230.75 73.102 228.84 75.239 C226.93 77.375 224.61 78.443 221.87 78.443 C219.13 78.443 216.8 77.375 214.88 75.239 C212.98 73.102 212.02 70.493 212.02 67.432 C212.02 64.372 212.98 61.772 214.88 59.637 C216.8 57.501 219.13 56.421 221.87 56.421 " data-centerx="122.85" data-centery="100" stroke="#000000" stroke-width="2" data-sw="2" stroke-opacity="1" stroke-linecap="butt" stroke-linejoin="round" fill="#cce4ff" fill-opacity="1" fill-rule="nonezero" filter="url(#filter1)" visibility="visible" stroke-dasharray="none" marker-start="none" marker-end="none" data-name="curve" data-title="curve" deg="0" data-grad="0" data-group="0" data-edit="1"></path><path id="path7" d="M319.67 95.869 L334.6 140.501 C335.93 144.338 338.76 146.256 343.1 146.256 C343.1 146.256 366.04 146.256 366.04 146.256 C372.7 146.256 376.03 148.792 376.03 153.853 C376.03 157.337 374.84 160.072 372.48 162.034 C370.12 164.008 366.84 165 362.64 165 C362.64 165 339.14 165 339.14 165 C332.91 165 328.52 164.052 325.96 162.177 C323.41 160.292 321.1 156.356 319.03 150.358 C319.03 150.358 300.26 94.855 300.26 94.855 C300.26 94.855 285.6 134.558 285.6 134.558 C282.77 142.353 278.73 146.256 273.5 146.256 C271.33 146.256 269.46 145.474 267.9 143.919 C266.35 142.342 265.57 140.49 265.57 138.351 C265.57 136.631 265.97 134.635 266.78 132.386 C266.78 132.386 267.62 130.115 267.62 130.115 C267.62 130.115 286.04 79.97 286.04 79.97 C288.82 72.341 290.21 67.07 290.21 64.148 C290.21 61.591 289.21 59.385 287.2 57.533 C285.2 55.67 282.86 54.744 280.17 54.744 C275.36 54.744 271.02 56.982 267.17 61.447 C263.32 65.913 261.4 70.918 261.4 76.464 C261.4 82.528 264.36 86.729 270.26 89.077 C273.84 90.489 275.64 92.947 275.64 96.454 C275.64 99.375 274.61 101.801 272.56 103.708 C270.5 105.616 267.94 106.564 264.87 106.564 C258.97 106.564 253.92 103.808 249.71 98.295 C245.52 92.782 243.42 86.211 243.42 78.57 C243.42 67.192 247.28 57.246 255 48.746 C262.71 40.256 271.76 36 282.14 36 C289.87 36 296.34 38.503 301.53 43.508 C306.72 48.525 309.32 54.777 309.32 62.285 C309.32 67.611 308.1 73.608 305.65 80.279 C305.65 80.279 303.17 86.927 303.17 86.927 C303.17 86.927 340.34 44.049 340.34 44.049 C344.35 39.418 348 37.103 351.31 37.103 C353.58 37.103 355.47 37.929 356.98 39.561 C358.49 41.193 359.25 43.266 359.25 45.769 C359.25 48.834 357.33 52.583 353.51 57.004 C353.51 57.004 319.67 95.869 319.67 95.869 M355.52 127.113 L363.52 127.113 C369.47 127.113 372.45 129.362 372.45 133.861 C372.45 136.959 371.39 139.362 369.29 141.082 C367.2 142.802 364.26 143.651 360.48 143.651 C360.48 143.651 349.21 143.651 349.21 143.651 C345.06 143.651 341.78 142.725 339.4 140.862 C337.02 138.987 335.84 136.441 335.84 133.232 C335.84 131.523 336.33 129.34 337.32 126.683 C337.32 126.683 349.01 95.083 349.01 95.083 C349.01 95.083 349.79 92.9 349.79 92.9 C351.95 87.046 355.45 84.113 360.26 84.113 C362.25 84.113 363.96 84.852 365.4 86.318 C366.84 87.795 367.56 89.537 367.56 91.577 C367.56 93.264 366.92 95.833 365.65 99.295 C365.65 99.295 355.52 127.113 355.52 127.113 M364.87 58.754 C367.61 58.754 369.93 59.834 371.84 61.973 C373.75 64.112 374.71 66.714 374.71 69.779 C374.71 72.845 373.75 75.458 371.84 77.597 C369.93 79.736 367.61 80.805 364.87 80.805 C362.13 80.805 359.8 79.736 357.88 77.597 C355.98 75.458 355.02 72.845 355.02 69.779 C355.02 66.714 355.98 64.112 357.88 61.973 C359.8 59.834 362.13 58.754 364.87 58.754 M410.24 84.113 L412.43 84.113 C418.43 84.113 421.43 86.362 421.43 90.861 C421.43 93.959 420.37 96.362 418.24 98.082 C416.12 99.802 413.19 100.651 409.46 100.651 C409.46 100.651 404.29 100.651 404.29 100.651 C404.29 100.651 394.8 127.113 394.8 127.113 C394.8 127.113 402.73 127.113 402.73 127.113 C408.73 127.113 411.73 129.362 411.73 133.861 C411.73 136.959 410.67 139.362 408.57 141.082 C406.48 142.802 403.54 143.651 399.76 143.651 C399.76 143.651 387.09 143.651 387.09 143.651 C383.49 143.651 380.64 142.736 378.54 140.917 C376.45 139.076 375.4 136.584 375.4 133.431 C375.4 131.501 375.82 129.351 376.68 126.992 C376.68 126.992 378.02 123.529 378.02 123.529 C378.02 123.529 386.38 100.651 386.38 100.651 C386.38 100.651 385.32 100.651 385.32 100.651 C380.03 100.651 377.38 98.457 377.38 94.058 C377.38 90.916 378.43 88.479 380.52 86.737 C382.63 84.984 385.57 84.113 389.35 84.113 C389.35 84.113 392.6 84.113 392.6 84.113 C392.6 84.113 396.35 73.914 396.35 73.914 C396.35 73.914 397.13 71.808 397.13 71.808 C399.35 66.053 402.84 63.164 407.62 63.164 C409.56 63.164 411.22 63.881 412.6 65.314 C414 66.747 414.7 68.467 414.7 70.485 C414.7 72.459 414.08 74.962 412.85 77.961 C412.85 77.961 410.24 84.113 410.24 84.113 M468.74 127.113 L476.96 127.113 C480.22 127.113 482.53 127.642 483.9 128.678 C485.27 129.715 485.96 131.424 485.96 133.794 C485.96 136.882 484.91 139.285 482.8 141.027 C480.71 142.78 477.77 143.651 473.99 143.651 C473.99 143.651 461.32 143.651 461.32 143.651 C457.35 143.651 454.7 141.997 453.38 138.69 C450.79 141.997 447.53 143.651 443.62 143.651 C443.62 143.651 433.27 143.651 433.27 143.651 C429.12 143.651 425.67 142.229 422.93 139.373 C420.2 136.518 418.84 132.912 418.84 128.546 C418.84 126.054 419.45 123.144 420.68 119.825 C420.68 119.825 430.3 93.826 430.3 93.826 C433 86.616 436.68 83.01 441.35 83.01 C443.38 83.01 445.11 83.738 446.52 85.182 C447.94 86.616 448.65 88.38 448.65 90.475 C448.65 92.051 448.27 93.859 447.51 95.899 C447.51 95.899 446.73 98.016 446.73 98.016 C446.73 98.016 439.29 118.226 439.29 118.226 C439.29 118.226 438.51 120.564 438.51 120.564 C438.09 121.909 437.86 122.923 437.8 123.596 C437.71 125.944 439.08 127.113 441.91 127.113 C447.77 127.113 451.66 124.5 453.59 119.274 C453.59 119.274 462.45 95.105 462.45 95.105 C465.09 87.773 468.82 84.113 473.63 84.113 C475.61 84.113 477.31 84.852 478.73 86.318 C480.14 87.795 480.85 89.537 480.85 91.577 C480.85 93.209 480.23 95.723 479.01 99.13 C479.01 99.13 468.74 127.113 468.74 127.113 " data-centerx="364.69" data-centery="100.5" stroke="#000000" stroke-width="2" data-sw="2" stroke-opacity="1" stroke-linecap="butt" stroke-linejoin="round" fill="#ffd9fe" fill-opacity="1" fill-rule="nonezero" filter="url(#filter3)" visibility="visible" stroke-dasharray="none" marker-start="none" marker-end="none" data-name="curve" data-title="curve" deg="0" data-grad="0" data-group="0" data-edit="1"></path></g><g id="settings" visibility="hidden" data-dn0="primalDraw" data-dn1="#FAFAFA" data-dn2="#D2D2D2" data-dn3="18" data-dn4="#FF8080" data-dn5="#000000" data-dn6="0" data-dn7="1" data-dn8="1" data-dn9="round" data-dn10="round" data-dn11="none" data-dn12="none" data-dn13="none" data-dn14="evenodd" data-dn15="10" data-dn16="1" data-dn17="500" data-dn18="200" data-dn19="10" data-dn20="0" data-dn21="1" data-dn22="1" data-dn23="8" data-dn24="path0,path7" data-dn25="25" data-dn26="url(#linear0)" data-dn27="url(#linear1)" data-dn28="url(#radial0)" data-dn29="url(#radial1)" data-dn30="#FF8000" data-dn31="#FFFF00" data-dn32="#000000" data-dn33="1" data-dn34="4" data-dn35="30" data-dn36="" data-dn37="0" data-dn38="193"></g></svg>